<svg xmlns="http://www.w3.org/2000/svg" width="338" height="386" data-diagram-type="ACTIVITY" preserveAspectRatio="none" viewBox="0 0 338 386"><g font-family="sans-serif"><circle cx="192.001" cy="25" r="10" fill="#ddd" style="stroke:#ddd;stroke-width:1"/><rect width="68" height="33.969" x="158.001" y="55" fill="#313139" rx="12.5" ry="12.5" style="stroke:#e7e7e7;stroke-width:.5"/><text x="168.001" y="76.139" fill="#fff" font-size="12" textLength="48">用户登录</text><path fill="#313139" d="M164.501 108.969h55l12 12-12 12h-55l-12-12z" style="stroke:#e7e7e7;stroke-width:.5;stroke-linejoin:miter;stroke-miterlimit:10"/><text x="164.501" y="124.777" fill="#fff" font-size="11" textLength="55">验证通过？</text><text x="141.501" y="118.375" fill="#fff" font-size="11">是</text><text x="231.501" y="118.375" fill="#fff" font-size="11">否</text><rect width="68" height="33.969" x="78" y="142.969" fill="#313139" rx="12.5" ry="12.5" style="stroke:#e7e7e7;stroke-width:.5"/><text x="88" y="164.107" fill="#fff" font-size="12" textLength="48">进入首页</text><path fill="#313139" d="M84.501 196.938H139.5l12 12-12 12H84.501l-12-12z" style="stroke:#e7e7e7;stroke-width:.5;stroke-linejoin:miter;stroke-miterlimit:10"/><text x="84.501" y="212.746" fill="#fff" font-size="11" textLength="55">有新消息？</text><text x="61.501" y="206.343" fill="#fff" font-size="11">是</text><text x="151.5" y="206.343" fill="#fff" font-size="11">否</text><rect width="92.001" height="33.969" x="16" y="230.938" fill="#313139" rx="12.5" ry="12.5" style="stroke:#e7e7e7;stroke-width:.5"/><text x="26" y="252.076" fill="#fff" font-size="12" textLength="72.001">显示消息提醒</text><rect width="68" height="33.969" x="128.001" y="230.938" fill="#313139" rx="12.5" ry="12.5" style="stroke:#e7e7e7;stroke-width:.5"/><text x="138.001" y="252.076" fill="#fff" font-size="12" textLength="48">继续浏览</text><path fill="#313139" d="m112.001 270.906 12 12-12 12-12-12z" style="stroke:#e7e7e7;stroke-width:.5;stroke-linejoin:miter;stroke-miterlimit:10"/><rect width="92.001" height="33.969" x="226.001" y="142.969" fill="#313139" rx="12.5" ry="12.5" style="stroke:#e7e7e7;stroke-width:.5"/><text x="236.001" y="164.107" fill="#fff" font-size="12" textLength="72.001">显示错误提示</text><rect width="80" height="33.969" x="232.001" y="196.938" fill="#313139" rx="12.5" ry="12.5" style="stroke:#e7e7e7;stroke-width:.5"/><text x="242.001" y="218.076" fill="#fff" font-size="12" textLength="60">返回登录页</text><path fill="#313139" d="m192.001 300.906 12 12-12 12-12-12z" style="stroke:#e7e7e7;stroke-width:.5;stroke-linejoin:miter;stroke-miterlimit:10"/><circle cx="192.001" cy="355.906" r="11" fill="none" style="stroke:#ddd;stroke-width:1"/><circle cx="192.001" cy="355.906" r="6" fill="#ddd" style="stroke:#ddd;stroke-width:1"/><path d="M192.001 35v20" style="stroke:#e7e7e7;stroke-width:1"/><path fill="#e7e7e7" d="m188.001 45 4 10 4-10-4 4z" style="stroke:#e7e7e7;stroke-width:1;stroke-linejoin:miter;stroke-miterlimit:10"/><path d="M72.501 208.938H62m0 0v22" style="stroke:#e7e7e7;stroke-width:1"/><path fill="#e7e7e7" d="m58 220.938 4 10 4-10-4 4z" style="stroke:#e7e7e7;stroke-width:1;stroke-linejoin:miter;stroke-miterlimit:10"/><path d="M151.5 208.938h10.501m0 0v22" style="stroke:#e7e7e7;stroke-width:1"/><path fill="#e7e7e7" d="m158.001 220.938 4 10 4-10-4 4z" style="stroke:#e7e7e7;stroke-width:1;stroke-linejoin:miter;stroke-miterlimit:10"/><path d="M62 264.906v18m0 0h38.001" style="stroke:#e7e7e7;stroke-width:1"/><path fill="#e7e7e7" d="m90.001 278.906 10 4-10 4 4-4z" style="stroke:#e7e7e7;stroke-width:1;stroke-linejoin:miter;stroke-miterlimit:10"/><path d="M162.001 264.906v18m0 0h-38" style="stroke:#e7e7e7;stroke-width:1"/><path fill="#e7e7e7" d="m134.001 278.906-10 4 10 4-4-4z" style="stroke:#e7e7e7;stroke-width:1;stroke-linejoin:miter;stroke-miterlimit:10"/><path d="M112.001 176.938v20" style="stroke:#e7e7e7;stroke-width:1"/><path fill="#e7e7e7" d="m108.001 186.938 4 10 4-10-4 4z" style="stroke:#e7e7e7;stroke-width:1;stroke-linejoin:miter;stroke-miterlimit:10"/><path d="M272.001 176.938v20" style="stroke:#e7e7e7;stroke-width:1"/><path fill="#e7e7e7" d="m268.001 186.938 4 10 4-10-4 4z" style="stroke:#e7e7e7;stroke-width:1;stroke-linejoin:miter;stroke-miterlimit:10"/><path d="M152.501 120.969h-40.5m0 0v22" style="stroke:#e7e7e7;stroke-width:1"/><path fill="#e7e7e7" d="m108.001 132.969 4 10 4-10-4 4z" style="stroke:#e7e7e7;stroke-width:1;stroke-linejoin:miter;stroke-miterlimit:10"/><path d="M231.501 120.969h40.5m0 0v22" style="stroke:#e7e7e7;stroke-width:1"/><path fill="#e7e7e7" d="m268.001 132.969 4 10 4-10-4 4z" style="stroke:#e7e7e7;stroke-width:1;stroke-linejoin:miter;stroke-miterlimit:10"/><path d="M112.001 294.906v18m0 0h68" style="stroke:#e7e7e7;stroke-width:1"/><path fill="#e7e7e7" d="m170.001 308.906 10 4-10 4 4-4z" style="stroke:#e7e7e7;stroke-width:1;stroke-linejoin:miter;stroke-miterlimit:10"/><path d="M272.001 230.906v82m0 0h-68" style="stroke:#e7e7e7;stroke-width:1"/><path fill="#e7e7e7" d="m214.001 308.906-10 4 10 4-4-4z" style="stroke:#e7e7e7;stroke-width:1;stroke-linejoin:miter;stroke-miterlimit:10"/><path d="M192.001 88.969v20" style="stroke:#e7e7e7;stroke-width:1"/><path fill="#e7e7e7" d="m188.001 98.969 4 10 4-10-4 4z" style="stroke:#e7e7e7;stroke-width:1;stroke-linejoin:miter;stroke-miterlimit:10"/><path d="M192.001 324.906v20" style="stroke:#e7e7e7;stroke-width:1"/><path fill="#e7e7e7" d="m188.001 334.906 4 10 4-10-4 4z" style="stroke:#e7e7e7;stroke-width:1;stroke-linejoin:miter;stroke-miterlimit:10"/></g></svg>