<svg xmlns="http://www.w3.org/2000/svg" width="451" height="385" data-diagram-type="DESCRIPTION" preserveAspectRatio="none" viewBox="0 0 451 385"><g class="cluster" data-qualified-name="POS System" data-source-line="5"><rect width="167.69" height="358" x="169" y="7" fill="none" rx="2.5" ry="2.5" style="stroke:#e7e7e7;stroke-width:1"/><text x="205.127" y="21.995" fill="#fff" font-family="sans-serif" font-size="14" font-weight="700" textLength="95.436">POS System</text></g><g class="entity" data-qualified-name="POS System.Checkout" data-source-line="6"><ellipse cx="252.855" cy="334.004" fill="#313139" rx="49.665" ry="14.524" style="stroke:#e7e7e7;stroke-width:.5"/><text x="219.858" y="338.652" fill="#fff" font-family="sans-serif" font-size="14" textLength="65.994">Checkout</text></g><g class="entity" data-qualified-name="POS System.Print Receipt" data-source-line="8"><ellipse cx="252.846" cy="56.997" fill="#313139" rx="63.636" ry="15.127" style="stroke:#e7e7e7;stroke-width:.5"/><text x="207.937" y="61.646" fill="#fff" font-family="sans-serif" font-size="14" textLength="89.817">Print Receipt</text></g><g class="entity" data-qualified-name="POS System.Payment" data-source-line="9"><ellipse cx="252.854" cy="253.004" fill="#313139" rx="46.784" ry="14.524" style="stroke:#e7e7e7;stroke-width:.5"/><text x="221.894" y="257.652" fill="#fff" font-family="sans-serif" font-size="14" textLength="61.92">Payment</text></g><g class="entity" data-qualified-name="POS System.Cash Payment" data-source-line="10"><ellipse cx="252.854" cy="122.999" fill="#313139" rx="67.844" ry="15.969" style="stroke:#e7e7e7;stroke-width:.5"/><text x="202.408" y="127.647" fill="#fff" font-family="sans-serif" font-size="14" textLength="100.892">Cash Payment</text></g><g class="entity" data-qualified-name="POS System.Scan to Pay" data-source-line="11"><ellipse cx="252.846" cy="189.001" fill="#313139" rx="60.907" ry="14.581" style="stroke:#e7e7e7;stroke-width:.5"/><text x="211.697" y="193.65" fill="#fff" font-family="sans-serif" font-size="14" textLength="82.298">Scan to Pay</text></g><g class="entity" data-qualified-name="customer" data-source-line="2"><circle cx="40.002" cy="304.35" r="8" fill="#313139" style="stroke:#e7e7e7;stroke-width:.5"/><path fill="none" d="M40.002 312.35v27m-13-19h26m-13 19-13 15m13-15 13 15" style="stroke:#e7e7e7;stroke-width:.5"/><text x="6" y="368.845" fill="#fff" font-family="sans-serif" font-size="14" textLength="68.004">Customer</text></g><g class="entity" data-qualified-name="cashier" data-source-line="3"><circle cx="410.08" cy="304.35" r="8" fill="#313139" style="stroke:#e7e7e7;stroke-width:.5"/><path fill="none" d="M410.08 312.35v27m-13-19h26m-13 19-13 15m13-15 13 15" style="stroke:#e7e7e7;stroke-width:.5"/><text x="383.69" y="368.845" fill="#fff" font-family="sans-serif" font-size="14" textLength="52.78">Cashier</text></g><path fill="none" d="M74.41 334H202.9" class="link" data-entity-1="ent0001" data-entity-2="ent0004" data-link-type="association" data-source-line="6" style="stroke:#e7e7e7;stroke-width:1"/><path fill="none" d="M302.96 334h80.31" class="link" data-entity-1="ent0004" data-entity-2="ent0002" data-link-type="association" data-source-line="7" style="stroke:#e7e7e7;stroke-width:1"/><g class="link" data-entity-1="ent0004" data-entity-2="ent0007" data-link-type="dependency" data-source-line="8"><path fill="none" d="M219.97 322.85c-19.31-7.96-42.99-20.38-58.97-37.85-27.86-30.46-28.05-45.05-36.27-85.5C115.72 155.23 159.51 91.45 161 90c11.43-11.1 22.09-16.939 37.03-21.849" style="stroke:#e7e7e7;stroke-width:1;stroke-dasharray:7,7"/><path fill="#e7e7e7" d="m202.78 66.59-9.799-.99 5.049 2.551-2.551 5.049z" style="stroke:#e7e7e7;stroke-width:1;stroke-linejoin:miter;stroke-miterlimit:10"/><text x="105" y="195.567" fill="#fff" font-family="sans-serif" font-size="13" textLength="47.1">include</text></g><g class="link" data-entity-1="ent0004" data-entity-2="ent0009" data-link-type="dependency" data-source-line="9"><path fill="none" d="M252.85 319.14v-46.38" style="stroke:#e7e7e7;stroke-width:1;stroke-dasharray:7,7"/><path fill="#e7e7e7" d="m252.85 267.76-4 9 4-4 4 4z" style="stroke:#e7e7e7;stroke-width:1;stroke-linejoin:miter;stroke-miterlimit:10"/><text x="217.85" y="298.067" fill="#fff" font-family="sans-serif" font-size="13" textLength="47.1">include</text></g><g class="link" data-entity-1="ent0009" data-entity-2="ent0011" data-link-type="dependency" data-source-line="10"><path fill="none" d="M207.07 249.65c-31.04-4.96-69.89-17.02-89.57-46.15-24.48-36.25 29.654-57.44 77.334-69.13" style="stroke:#e7e7e7;stroke-width:1;stroke-dasharray:7,7"/><path fill="#e7e7e7" d="m199.69 133.18-9.694-1.742 4.838 2.933-2.933 4.837z" style="stroke:#e7e7e7;stroke-width:1;stroke-linejoin:miter;stroke-miterlimit:10"/></g><g class="link" data-entity-1="ent0009" data-entity-2="ent0013" data-link-type="dependency" data-source-line="11"><path fill="none" d="M252.85 238v-29.07" style="stroke:#e7e7e7;stroke-width:1;stroke-dasharray:7,7"/><path fill="#e7e7e7" d="m252.85 203.93-4 9 4-4 4 4z" style="stroke:#e7e7e7;stroke-width:1;stroke-linejoin:miter;stroke-miterlimit:10"/></g></svg>