<svg xmlns="http://www.w3.org/2000/svg" width="243" height="286" data-diagram-type="CLASS" preserveAspectRatio="none" viewBox="0 0 243 286"><g class="entity" data-qualified-name="Vehicle" data-source-line="1"><rect width="83.153" height="48" x="108.41" y="7" fill="#313139" rx="2.5" ry="2.5" style="stroke:#e7e7e7;stroke-width:.5"/><circle cx="123.41" cy="23" r="11" fill="#2e5233" style="stroke:#e7e7e7;stroke-width:1"/><path fill="#fff" d="M126.379 28.64q-.578.297-1.219.438-.64.156-1.344.156-2.5 0-3.828-1.64-1.312-1.657-1.312-4.782t1.312-4.78q1.328-1.657 3.828-1.657.703 0 1.344.156.656.157 1.219.453v2.72q-.625-.579-1.219-.845-.594-.28-1.219-.28-1.344 0-2.031 1.077-.687 1.063-.687 3.157 0 2.093.687 3.171.688 1.063 2.031 1.063.625 0 1.219-.266.594-.281 1.219-.86z"/><text x="137.41" y="27.847" fill="#fff" font-family="sans-serif" font-size="14" textLength="51.153">Vehicle</text><path d="M109.41 39h81.153m-81.153 8h81.153" style="stroke:#e7e7e7;stroke-width:.5"/></g><g class="entity" data-qualified-name="Car" data-source-line="2"><rect width="56.11" height="48" x="74.94" y="115" fill="#313139" rx="2.5" ry="2.5" style="stroke:#e7e7e7;stroke-width:.5"/><circle cx="89.94" cy="131" r="11" fill="#2e5233" style="stroke:#e7e7e7;stroke-width:1"/><path fill="#fff" d="M92.909 136.64q-.578.298-1.219.438-.64.156-1.344.156-2.5 0-3.828-1.64-1.312-1.656-1.312-4.781t1.312-4.782q1.328-1.656 3.828-1.656.703 0 1.344.156.656.156 1.219.453v2.72q-.625-.579-1.219-.845-.594-.28-1.219-.28-1.344 0-2.031 1.077-.687 1.063-.687 3.156t.687 3.172q.688 1.063 2.031 1.063.625 0 1.219-.266.594-.281 1.219-.86z"/><text x="103.94" y="135.847" fill="#fff" font-family="sans-serif" font-size="14" textLength="24.11">Car</text><path d="M75.94 147h54.11m-54.11 8h54.11" style="stroke:#e7e7e7;stroke-width:.5"/></g><g class="entity" data-qualified-name="Bike" data-source-line="3"><rect width="62.215" height="48" x="165.88" y="115" fill="#313139" rx="2.5" ry="2.5" style="stroke:#e7e7e7;stroke-width:.5"/><circle cx="180.88" cy="131" r="11" fill="#2e5233" style="stroke:#e7e7e7;stroke-width:1"/><path fill="#fff" d="M183.849 136.64q-.578.298-1.219.438-.64.156-1.344.156-2.5 0-3.828-1.64-1.312-1.656-1.312-4.781t1.312-4.782q1.328-1.656 3.828-1.656.703 0 1.344.156.656.156 1.219.453v2.72q-.625-.579-1.219-.845-.594-.28-1.219-.28-1.344 0-2.031 1.077-.687 1.063-.687 3.156t.687 3.172q.688 1.063 2.031 1.063.625 0 1.219-.266.594-.281 1.219-.86z"/><text x="194.88" y="135.847" fill="#fff" font-family="sans-serif" font-size="14" textLength="30.215">Bike</text><path d="M166.88 147h60.215m-60.215 8h60.215" style="stroke:#e7e7e7;stroke-width:.5"/></g><g class="entity" data-qualified-name="Engine" data-source-line="8"><rect width="79.981" height="48" x="7" y="223" fill="#313139" rx="2.5" ry="2.5" style="stroke:#e7e7e7;stroke-width:.5"/><circle cx="22" cy="239" r="11" fill="#2e5233" style="stroke:#e7e7e7;stroke-width:1"/><path fill="#fff" d="M24.969 244.64q-.578.298-1.219.438-.64.156-1.344.156-2.5 0-3.828-1.64-1.312-1.656-1.312-4.781t1.312-4.782q1.328-1.656 3.828-1.656.703 0 1.344.156.656.156 1.219.453v2.72q-.625-.579-1.219-.845-.594-.28-1.219-.28-1.343 0-2.031 1.077-.687 1.063-.687 3.156t.687 3.172q.688 1.063 2.031 1.063.625 0 1.219-.266.594-.281 1.219-.86z"/><text x="36" y="243.847" fill="#fff" font-family="sans-serif" font-size="14" textLength="47.981">Engine</text><path d="M8 255h77.981M8 263h77.981" style="stroke:#e7e7e7;stroke-width:.5"/></g><g class="entity" data-qualified-name="Wheel" data-source-line="9"><rect width="75.832" height="48" x="122.07" y="223" fill="#313139" rx="2.5" ry="2.5" style="stroke:#e7e7e7;stroke-width:.5"/><circle cx="137.07" cy="239" r="11" fill="#2e5233" style="stroke:#e7e7e7;stroke-width:1"/><path fill="#fff" d="M140.039 244.64q-.578.298-1.219.438-.64.156-1.344.156-2.5 0-3.828-1.64-1.312-1.656-1.312-4.781t1.312-4.782q1.328-1.656 3.828-1.656.703 0 1.344.156.656.156 1.219.453v2.72q-.625-.579-1.219-.845-.594-.28-1.219-.28-1.344 0-2.031 1.077-.687 1.063-.687 3.156t.687 3.172q.688 1.063 2.031 1.063.625 0 1.219-.266.594-.281 1.219-.86z"/><text x="151.07" y="243.847" fill="#fff" font-family="sans-serif" font-size="14" textLength="43.832">Wheel</text><path d="M123.07 255h73.832m-73.832 8h73.832" style="stroke:#e7e7e7;stroke-width:.5"/></g><g fill="none" class="link" data-entity-1="ent0001" data-entity-2="ent0002" data-link-type="extension" data-source-line="5"><path d="M132.383 71.715c-7.84 17.68-11.273 25.415-19.103 43.075" style="stroke:#e7e7e7;stroke-width:1"/><path d="m139.68 55.26-12.782 14.023 10.97 4.864z" style="stroke:#e7e7e7;stroke-width:1;stroke-linejoin:miter;stroke-miterlimit:10"/></g><g fill="none" class="link" data-entity-1="ent0001" data-entity-2="ent0003" data-link-type="extension" data-source-line="6"><path d="M167.599 71.718c7.83 17.68 11.271 25.412 19.101 43.072" style="stroke:#e7e7e7;stroke-width:1"/><path d="m160.31 55.26 1.803 18.888 10.972-4.86z" style="stroke:#e7e7e7;stroke-width:1;stroke-linejoin:miter;stroke-miterlimit:10"/></g><g class="link" data-entity-1="ent0002" data-entity-2="ent0006" data-link-type="composition" data-source-line="11"><path fill="none" d="M85.095 173.87 59.25 222.79" style="stroke:#e7e7e7;stroke-width:1"/><path fill="#e7e7e7" d="m90.7 163.26-6.34 3.437.735 7.173 6.34-3.436z" style="stroke:#e7e7e7;stroke-width:1;stroke-linejoin:miter;stroke-miterlimit:10"/></g><g class="link" data-entity-1="ent0002" data-entity-2="ent0007" data-link-type="composition" data-source-line="12"><path fill="none" d="M121.18 173.83c9.5 17.68 16.83 31.3 26.33 48.96" style="stroke:#e7e7e7;stroke-width:1"/><path fill="#e7e7e7" d="m115.5 163.26-.684 7.179 6.364 3.392.683-7.179z" style="stroke:#e7e7e7;stroke-width:1;stroke-linejoin:miter;stroke-miterlimit:10"/></g></svg>