<svg xmlns="http://www.w3.org/2000/svg" width="456" height="386" data-diagram-type="ACTIVITY" preserveAspectRatio="none" viewBox="0 0 456 386"><g font-family="sans-serif"><circle cx="266.689" cy="25" r="10" fill="#ddd" style="stroke:#ddd;stroke-width:1"/><rect width="83.75" height="33.969" x="224.814" y="55" fill="#313139" rx="12.5" ry="12.5" style="stroke:#e7e7e7;stroke-width:.5"/><text x="234.814" y="76.139" fill="#fff" font-size="12" textLength="63.75">User Login</text><path fill="#313139" d="M224.899 108.969h83.58l12 12-12 12h-83.58l-12-12z" style="stroke:#e7e7e7;stroke-width:.5;stroke-linejoin:miter;stroke-miterlimit:10"/><text x="224.899" y="124.777" fill="#fff" font-size="11" textLength="83.58">Authenticated?</text><text x="193.891" y="118.375" fill="#fff" font-size="11" textLength="19.008">yes</text><text x="320.479" y="118.375" fill="#fff" font-size="11" textLength="13.702">no</text><rect width="121.338" height="33.969" x="92.342" y="142.969" fill="#313139" rx="12.5" ry="12.5" style="stroke:#e7e7e7;stroke-width:.5"/><text x="102.342" y="164.107" fill="#fff" font-size="12" textLength="101.338">Enter Dashboard</text><path fill="#313139" d="M109.376 196.938h87.27l12 12-12 12h-87.27l-12-12z" style="stroke:#e7e7e7;stroke-width:.5;stroke-linejoin:miter;stroke-miterlimit:10"/><text x="109.376" y="212.746" fill="#fff" font-size="11" textLength="87.27">New Messages?</text><text x="78.368" y="206.343" fill="#fff" font-size="11" textLength="19.008">yes</text><text x="208.646" y="206.343" fill="#fff" font-size="11" textLength="13.702">no</text><rect width="125.047" height="33.969" x="16" y="230.938" fill="#313139" rx="12.5" ry="12.5" style="stroke:#e7e7e7;stroke-width:.5"/><text x="26" y="252.076" fill="#fff" font-size="12" textLength="105.047">Show Notification</text><rect width="132.904" height="33.969" x="161.047" y="230.938" fill="#313139" rx="12.5" ry="12.5" style="stroke:#e7e7e7;stroke-width:.5"/><text x="171.047" y="252.076" fill="#fff" font-size="12" textLength="112.904">Continue Browsing</text><path fill="#313139" d="m153.011 270.906 12 12-12 12-12-12z" style="stroke:#e7e7e7;stroke-width:.5;stroke-linejoin:miter;stroke-miterlimit:10"/><rect width="85.918" height="33.969" x="337.407" y="142.969" fill="#313139" rx="12.5" ry="12.5" style="stroke:#e7e7e7;stroke-width:.5"/><text x="347.407" y="164.107" fill="#fff" font-size="12" textLength="65.918">Show Error</text><rect width="112.83" height="33.969" x="323.951" y="196.938" fill="#313139" rx="12.5" ry="12.5" style="stroke:#e7e7e7;stroke-width:.5"/><text x="333.951" y="218.076" fill="#fff" font-size="12" textLength="92.83">Return to Login</text><path fill="#313139" d="m266.689 300.906 12 12-12 12-12-12z" style="stroke:#e7e7e7;stroke-width:.5;stroke-linejoin:miter;stroke-miterlimit:10"/><circle cx="266.689" cy="355.906" r="11" fill="none" style="stroke:#ddd;stroke-width:1"/><circle cx="266.689" cy="355.906" r="6" fill="#ddd" style="stroke:#ddd;stroke-width:1"/><path d="M266.689 35v20" style="stroke:#e7e7e7;stroke-width:1"/><path fill="#e7e7e7" d="m262.689 45 4 10 4-10-4 4z" style="stroke:#e7e7e7;stroke-width:1;stroke-linejoin:miter;stroke-miterlimit:10"/><path d="M97.376 208.938H78.523m0 0v22" style="stroke:#e7e7e7;stroke-width:1"/><path fill="#e7e7e7" d="m74.523 220.938 4 10 4-10-4 4z" style="stroke:#e7e7e7;stroke-width:1;stroke-linejoin:miter;stroke-miterlimit:10"/><path d="M208.646 208.938h18.853m0 0v22" style="stroke:#e7e7e7;stroke-width:1"/><path fill="#e7e7e7" d="m223.499 220.938 4 10 4-10-4 4z" style="stroke:#e7e7e7;stroke-width:1;stroke-linejoin:miter;stroke-miterlimit:10"/><path d="M78.523 264.906v18m0 0h62.488" style="stroke:#e7e7e7;stroke-width:1"/><path fill="#e7e7e7" d="m131.011 278.906 10 4-10 4 4-4z" style="stroke:#e7e7e7;stroke-width:1;stroke-linejoin:miter;stroke-miterlimit:10"/><path d="M227.499 264.906v18m0 0h-62.488" style="stroke:#e7e7e7;stroke-width:1"/><path fill="#e7e7e7" d="m175.011 278.906-10 4 10 4-4-4z" style="stroke:#e7e7e7;stroke-width:1;stroke-linejoin:miter;stroke-miterlimit:10"/><path d="M153.011 176.938v20" style="stroke:#e7e7e7;stroke-width:1"/><path fill="#e7e7e7" d="m149.011 186.938 4 10 4-10-4 4z" style="stroke:#e7e7e7;stroke-width:1;stroke-linejoin:miter;stroke-miterlimit:10"/><path d="M380.366 176.938v20" style="stroke:#e7e7e7;stroke-width:1"/><path fill="#e7e7e7" d="m376.366 186.938 4 10 4-10-4 4z" style="stroke:#e7e7e7;stroke-width:1;stroke-linejoin:miter;stroke-miterlimit:10"/><path d="M212.899 120.969h-59.888m0 0v22" style="stroke:#e7e7e7;stroke-width:1"/><path fill="#e7e7e7" d="m149.011 132.969 4 10 4-10-4 4z" style="stroke:#e7e7e7;stroke-width:1;stroke-linejoin:miter;stroke-miterlimit:10"/><path d="M320.479 120.969h59.887m0 0v22" style="stroke:#e7e7e7;stroke-width:1"/><path fill="#e7e7e7" d="m376.366 132.969 4 10 4-10-4 4z" style="stroke:#e7e7e7;stroke-width:1;stroke-linejoin:miter;stroke-miterlimit:10"/><path d="M153.011 294.906v18m0 0h101.678" style="stroke:#e7e7e7;stroke-width:1"/><path fill="#e7e7e7" d="m244.689 308.906 10 4-10 4 4-4z" style="stroke:#e7e7e7;stroke-width:1;stroke-linejoin:miter;stroke-miterlimit:10"/><path d="M380.366 230.906v82m0 0H278.689" style="stroke:#e7e7e7;stroke-width:1"/><path fill="#e7e7e7" d="m288.689 308.906-10 4 10 4-4-4z" style="stroke:#e7e7e7;stroke-width:1;stroke-linejoin:miter;stroke-miterlimit:10"/><path d="M266.689 88.969v20" style="stroke:#e7e7e7;stroke-width:1"/><path fill="#e7e7e7" d="m262.689 98.969 4 10 4-10-4 4z" style="stroke:#e7e7e7;stroke-width:1;stroke-linejoin:miter;stroke-miterlimit:10"/><path d="M266.689 324.906v20" style="stroke:#e7e7e7;stroke-width:1"/><path fill="#e7e7e7" d="m262.689 334.906 4 10 4-10-4 4z" style="stroke:#e7e7e7;stroke-width:1;stroke-linejoin:miter;stroke-miterlimit:10"/></g></svg>