<svg xmlns="http://www.w3.org/2000/svg" width="350" height="381" data-diagram-type="DESCRIPTION" preserveAspectRatio="none" viewBox="0 0 350 381"><g class="cluster" data-qualified-name="...." data-source-line="5"><rect width="117.2" height="354" x="129" y="7" fill="none" rx="2.5" ry="2.5" style="stroke:#e7e7e7;stroke-width:1"/><text x="159.6" y="21.995" fill="#fff" font-family="sans-serif" font-size="14" font-weight="700" textLength="56">收银系统</text></g><g class="entity" data-qualified-name="......." data-source-line="6"><ellipse cx="187.599" cy="330.004" fill="#313139" rx="22.799" ry="14.524" style="stroke:#e7e7e7;stroke-width:.5"/><text x="173.599" y="334.652" fill="#fff" font-family="sans-serif" font-size="14" textLength="28">结账</text></g><g class="entity" data-qualified-name="........." data-source-line="8"><ellipse cx="187.598" cy="57.004" fill="#313139" rx="42.598" ry="14.524" style="stroke:#e7e7e7;stroke-width:.5"/><text x="159.598" y="61.652" fill="#fff" font-family="sans-serif" font-size="14" textLength="56">打印小票</text></g><g class="entity" data-qualified-name="......." data-source-line="9"><ellipse cx="187.599" cy="249.004" fill="#313139" rx="22.799" ry="14.524" style="stroke:#e7e7e7;stroke-width:.5"/><text x="173.599" y="253.652" fill="#fff" font-family="sans-serif" font-size="14" textLength="28">支付</text></g><g class="entity" data-qualified-name="........." data-source-line="10"><ellipse cx="187.598" cy="121.004" fill="#313139" rx="42.598" ry="14.524" style="stroke:#e7e7e7;stroke-width:.5"/><text x="159.598" y="125.652" fill="#fff" font-family="sans-serif" font-size="14" textLength="56">现金支付</text></g><g class="entity" data-qualified-name="........." data-source-line="11"><ellipse cx="187.598" cy="185.004" fill="#313139" rx="42.598" ry="14.524" style="stroke:#e7e7e7;stroke-width:.5"/><text x="159.598" y="189.652" fill="#fff" font-family="sans-serif" font-size="14" textLength="56">扫码支付</text></g><g class="entity" data-qualified-name="customer" data-source-line="2"><circle cx="20" cy="300.35" r="8" fill="#313139" style="stroke:#e7e7e7;stroke-width:.5"/><path fill="none" d="M20 308.35v27m-13-19h26m-13 19-13 15m13-15 13 15" style="stroke:#e7e7e7;stroke-width:.5"/><text x="6" y="364.845" fill="#fff" font-family="sans-serif" font-size="14" textLength="28">顾客</text></g><g class="entity" data-qualified-name="cashier" data-source-line="3"><circle cx="314.2" cy="300.35" r="8" fill="#313139" style="stroke:#e7e7e7;stroke-width:.5"/><path fill="none" d="M314.2 308.35v27m-13-19h26m-13 19-13 15m13-15 13 15" style="stroke:#e7e7e7;stroke-width:.5"/><text x="293.2" y="364.845" fill="#fff" font-family="sans-serif" font-size="14" textLength="42">收银员</text></g><path fill="none" d="M34.27 330H164.5" class="link" data-entity-1="ent0001" data-entity-2="ent0004" data-link-type="association" data-source-line="6" style="stroke:#e7e7e7;stroke-width:1"/><path fill="none" d="M210.87 330h81.89" class="link" data-entity-1="ent0004" data-entity-2="ent0002" data-link-type="association" data-source-line="7" style="stroke:#e7e7e7;stroke-width:1"/><g class="link" data-entity-1="ent0004" data-entity-2="ent0007" data-link-type="dependency" data-source-line="8"><path fill="none" d="M169.88 320.27c-14.61-8.74-35.11-22.72-48.88-39.27-26.38-31.7-31.25-43.3-40.48-83.5C70.26 152.85 117.69 92.42 121 89c9.46-9.76 17.898-14.998 29.928-20.038" style="stroke:#e7e7e7;stroke-width:1;stroke-dasharray:7,7"/><path fill="#e7e7e7" d="m155.54 67.03-9.847-.212 5.235 2.144-2.143 5.235z" style="stroke:#e7e7e7;stroke-width:1;stroke-linejoin:miter;stroke-miterlimit:10"/><text x="65" y="193.567" fill="#fff" font-family="sans-serif" font-size="13" textLength="47.1">include</text></g><g class="link" data-entity-1="ent0004" data-entity-2="ent0009" data-link-type="dependency" data-source-line="9"><path fill="none" d="M187.6 315.14v-46.38" style="stroke:#e7e7e7;stroke-width:1;stroke-dasharray:7,7"/><path fill="#e7e7e7" d="m187.6 263.76-4 9 4-4 4 4z" style="stroke:#e7e7e7;stroke-width:1;stroke-linejoin:miter;stroke-miterlimit:10"/><text x="152.6" y="294.067" fill="#fff" font-family="sans-serif" font-size="13" textLength="47.1">include</text></g><g class="link" data-entity-1="ent0009" data-entity-2="ent0011" data-link-type="dependency" data-source-line="10"><path fill="none" d="M164.76 246.04c-26.2-4.75-68.02-16.8-87.26-46.54-21.99-34 30.85-56.389 70.79-68.319" style="stroke:#e7e7e7;stroke-width:1;stroke-dasharray:7,7"/><path fill="#e7e7e7" d="m153.08 129.75-9.768-1.257 4.977 2.688-2.688 4.977z" style="stroke:#e7e7e7;stroke-width:1;stroke-linejoin:miter;stroke-miterlimit:10"/></g><g class="link" data-entity-1="ent0009" data-entity-2="ent0013" data-link-type="dependency" data-source-line="11"><path fill="none" d="M187.6 234v-29.07" style="stroke:#e7e7e7;stroke-width:1;stroke-dasharray:7,7"/><path fill="#e7e7e7" d="m187.6 199.93-4 9 4-4 4 4z" style="stroke:#e7e7e7;stroke-width:1;stroke-linejoin:miter;stroke-miterlimit:10"/></g></svg>